<?xml version="1.0" encoding="UTF-8" standalone="no"?>
<svg
   xmlns:dc="http://purl.org/dc/elements/1.1/"
   xmlns:cc="http://creativecommons.org/ns#"
   xmlns:rdf="http://www.w3.org/1999/02/22-rdf-syntax-ns#"
   xmlns:svg="http://www.w3.org/2000/svg"
   xmlns="http://www.w3.org/2000/svg"
   width="142mm"
   height="142mm"
   viewBox="0 0 142 142"
   version="1.1"
   id="svg8">
  <defs
     id="defs2" />
  <metadata
     id="metadata5">
    <rdf:RDF>
      <cc:Work
         rdf:about="">
        <dc:format>image/svg+xml</dc:format>
        <dc:type
           rdf:resource="http://purl.org/dc/dcmitype/StillImage" />
        <dc:title></dc:title>
      </cc:Work>
    </rdf:RDF>
  </metadata>
  <g
     id="layer1" />
  <g
     id="layer2" />
  <g
     id="layer3">
    <g
       id="g64">
      <g
         id="g86"
         transform="translate(-51.067986,-48.559957)">
        <rect
           style="fill:#d4ecdd;stroke:#37ca78;stroke-width:2.88641;stroke-opacity:0.2"
           id="rect54"
           width="110.4362"
           height="77.10878"
           x="64.676758"
           y="76.213531" />
        <path
           style="fill:#45455f;stroke-width:0.264583"
           d="M 50.844079,119.79946 V 48.494251 h 71.305221 71.3052 v 71.305209 71.3052 H 122.1493 50.844079 Z m 117.739591,22.75416 v -1.71979 h -15.7427 -15.74271 v 1.71979 1.71979 h 15.74271 15.7427 z m -44.44708,-4.82864 c 0.002,-0.83675 0.0747,-1.95547 0.16245,-2.48605 l 0.15954,-0.9647 1.84947,-0.27451 c 2.49305,-0.37002 4.39583,-1.3526 5.98362,-3.08989 3.39936,-3.71945 4.17819,-9.01722 1.9445,-13.22704 -1.37519,-2.59182 -3.63464,-4.23817 -7.49668,-5.46245 l -2.63921,-0.83665 0.0828,-6.42884 c 0.0559,-4.34043 0.18041,-6.526259 0.38318,-6.728699 0.74768,-0.74646 3.22686,1.53391 4.57836,4.211229 l 0.79318,1.57126 1.13281,-0.14268 c 3.2419,-0.40833 3.2518,-0.41266 3.22391,-1.40915 -0.0343,-1.22576 -1.20284,-3.624139 -2.46352,-5.056349 -1.17389,-1.33361 -2.81137,-2.28283 -5.39184,-3.12559 -1.57422,-0.51411 -1.85165,-0.70562 -2.25104,-1.55381 -0.41152,-0.87397 -0.55675,-0.96743 -1.5033,-0.96743 -0.99686,0 -1.0621,0.0514 -1.34271,1.05833 -0.28529,1.0237 -0.35052,1.0721 -1.99286,1.47894 -3.54732,0.87876 -6.17296,2.95208 -7.60339,6.003999 -0.62985,1.34383 -0.70842,1.82338 -0.70303,4.29103 0.007,3.00203 0.41571,4.36599 1.88919,6.29782 0.94397,1.23761 3.44301,2.79943 6.08525,3.8031 l 2.20595,0.83793 v 7.49515 c 0,4.12234 -0.0635,7.49515 -0.14109,7.49515 -0.50326,0 -2.81811,-1.45366 -3.74199,-2.34986 -0.89448,-0.86767 -1.24729,-1.51457 -1.85209,-3.39589 -0.86081,-2.67768 -0.88207,-2.69048 -3.61344,-2.17511 l -1.81942,0.3433 0.16594,1.25094 c 0.41462,3.12551 1.9528,5.96339 4.07863,7.52487 1.24734,0.91621 3.7329,1.99172 5.79898,2.50924 l 1.12448,0.28166 v 2.19466 c 0,1.20706 0.0794,2.27404 0.17639,2.37105 0.097,0.097 0.75185,0.17639 1.45521,0.17639 h 1.27881 l 0.003,-1.52135 z m 0.16245,-8.3013 c -0.21536,-1.07677 -0.20926,-10.91082 0.008,-12.22312 0.15389,-0.93135 0.22171,-0.99793 0.85698,-0.84117 0.90359,0.22298 2.89876,1.50559 3.79093,2.43702 1.48853,1.55406 1.91755,3.99402 1.15044,6.54293 -0.60297,2.00352 -1.50418,3.12533 -3.26446,4.06355 -1.98992,1.06062 -2.33294,1.06342 -2.54147,0.0208 z m -4.94556,-19.4073 c -3.50331,-1.82326 -4.70315,-5.8625 -2.70261,-9.09829 0.76509,-1.237509 2.48508,-2.485799 3.84959,-2.793879 l 0.73241,-0.16536 -0.071,6.268199 c -0.044,3.89077 -0.17129,6.29664 -0.33553,6.34319 -0.14552,0.0412 -0.80832,-0.20798 -1.4729,-0.55386 z m -16.4344,7.93397 c 0.774,-0.4226 1.75627,-1.16584 2.18281,-1.65165 0.71539,-0.81478 0.77522,-1.04159 0.77148,-2.92459 -0.005,-2.72384 -0.16869,-2.92588 -1.46778,-1.81617 -3.14434,2.68599 -5.156153,2.81311 -11.22818,0.70945 -3.957018,-1.37091 -4.20325,-1.42156 -7.011458,-1.44228 -2.728901,-0.0201 -3.008688,0.028 -4.486095,0.77227 -2.277054,1.14707 -2.657654,1.79083 -2.657654,4.49527 0,1.21413 0.08615,2.29365 0.191444,2.39895 0.105296,0.10529 0.680408,-0.2503 1.278025,-0.79021 2.73771,-2.47336 5.276172,-2.71192 10.039905,-0.94354 5.208521,1.93351 5.975583,2.11496 8.59896,2.03418 2.048543,-0.0631 2.577893,-0.18068 3.788543,-0.84168 z"
           id="path52" />
      </g>
    </g>
  </g>
</svg>
