<?xml version="1.0" encoding="UTF-8" standalone="no"?>
<!-- Created with Inkscape (http://www.inkscape.org/) -->

<svg
   xmlns:dc="http://purl.org/dc/elements/1.1/"
   xmlns:cc="http://creativecommons.org/ns#"
   xmlns:rdf="http://www.w3.org/1999/02/22-rdf-syntax-ns#"
   xmlns:svg="http://www.w3.org/2000/svg"
   xmlns="http://www.w3.org/2000/svg"
   xmlns:sodipodi="http://sodipodi.sourceforge.net/DTD/sodipodi-0.dtd"
   xmlns:inkscape="http://www.inkscape.org/namespaces/inkscape"
   width="95mm"
   height="96mm"
   viewBox="0 0 95 96"
   version="1.1"
   id="svg8"
   sodipodi:docname="logoavatar.svg"
   inkscape:dataloss="true">
  <defs
     id="defs2" />
  <sodipodi:namedview
     id="base"
     pagecolor="#ffffff"
     bordercolor="#666666"
     borderopacity="1.0"
     inkscape:pageopacity="0.0"
     inkscape:pageshadow="2"
     inkscape:zoom="0.85217826"
     inkscape:cx="341.00418"
     inkscape:cy="157.24267"
     inkscape:document-units="mm"
     inkscape:current-layer="layer1"
     inkscape:document-rotation="0"
     showgrid="false"
     units="mm"
     inkscape:window-width="1366"
     inkscape:window-height="711"
     inkscape:window-x="0"
     inkscape:window-y="0"
     inkscape:window-maximized="1" />
  <metadata
     id="metadata5">
    <rdf:RDF>
      <cc:Work
         rdf:about="">
        <dc:format>image/svg+xml</dc:format>
        <dc:type
           rdf:resource="http://purl.org/dc/dcmitype/StillImage" />
        <dc:title></dc:title>
      </cc:Work>
    </rdf:RDF>
  </metadata>
  <g
     inkscape:groupmode="layer"
     id="layer2"
     inkscape:label="background" />
  <g
     inkscape:label="Layer 1"
     inkscape:groupmode="layer"
     id="layer1">
    <path
       style="fill:#2a2b3a;stroke-width:0.264583"
       d="M 0.16028781,49.049334 V 1.4243332 h 47.62499519 47.625 V 49.049334 96.67434 H 47.785283 0.16028781 Z M 78.741533,64.262876 V 63.072251 H 68.290492 57.83945 v 1.190625 1.190625 h 10.451042 10.451041 z m -29.579813,-3.902604 0.07877,-1.653646 1.333145,-0.162727 c 1.651966,-0.201644 2.735382,-0.748212 3.938307,-1.986827 2.732252,-2.813309 2.955915,-7.454985 0.490712,-10.18367 -1.099182,-1.216662 -2.216655,-1.848699 -4.381066,-2.477913 l -1.51339,-0.439954 v -4.479142 c 0,-4.951079 5.29e-4,-4.952526 1.614519,-3.883829 0.550151,0.364299 1.155706,1.141304 1.560481,2.002311 l 0.661458,1.406996 1.455209,-0.17576 c 0.800364,-0.09667 1.499266,-0.21825 1.553114,-0.270182 0.256607,-0.247473 -0.317367,-2.005031 -1.013028,-3.101975 -0.945343,-1.49065 -2.312072,-2.431701 -4.244253,-2.922347 -1.261721,-0.320395 -1.466339,-0.462481 -1.538928,-1.06861 -0.0723,-0.603729 -0.207631,-0.699079 -0.992187,-0.699079 -0.818595,0 -0.908468,0.07329 -0.908468,0.740812 0,0.692118 -0.103722,0.762238 -1.577944,1.066734 -2.032452,0.419796 -3.608138,1.606722 -4.617717,3.478411 -0.644782,1.195385 -0.771699,1.738199 -0.771699,3.300489 0,3.422769 1.564256,5.389388 5.398846,6.787549 l 1.568514,0.571908 v 5.009462 5.009462 L 46.660802,56.047913 C 45.858898,55.80433 44.425306,54.708462 43.940375,53.968365 43.723435,53.63727 43.400051,52.752231 43.221745,52.001606 42.86863,50.515068 42.85448,50.508287 40.95592,50.915454 l -1.29916,0.278619 0.229621,1.229104 c 0.658271,3.523538 2.62299,5.376709 6.64213,6.26501 0.694721,0.153546 0.727604,0.232326 0.727604,1.743271 v 1.58246 h 0.913415 0.913419 z m 0.112379,-4.354068 c -0.09124,-0.09124 -0.165899,-2.229646 -0.165899,-4.752009 0,-3.496474 0.07858,-4.58434 0.330729,-4.578657 0.759267,0.01712 2.754628,1.285076 3.307292,2.101641 1.087048,1.606119 0.698362,4.668819 -0.763262,6.014214 -0.738719,0.679977 -2.468129,1.455545 -2.70886,1.214811 z M 45.370352,42.20568 c -1.34484,-0.852871 -1.907305,-1.906873 -1.90523,-3.570208 0.0024,-1.905341 1.273789,-3.563808 3.079528,-4.01702 l 0.711467,-0.178568 v 4.262017 c 0,3.327723 -0.07565,4.262017 -0.345075,4.262017 -0.189791,0 -0.883103,-0.341207 -1.54069,-0.758238 z m -11.322839,6.012484 c 0.554398,-0.166102 1.431415,-0.65102 1.948927,-1.077595 0.900133,-0.741968 0.940927,-0.84932 0.940927,-2.476121 0,-0.935292 -0.100611,-1.70053 -0.223576,-1.70053 -0.122968,0 -0.450389,0.250793 -0.727604,0.557321 -0.799227,0.883732 -2.368127,1.559345 -3.621087,1.559345 -0.707676,0 -2.271798,-0.421669 -4.045437,-1.090601 -3.263325,-1.230773 -5.290659,-1.415466 -7.121394,-0.648769 -1.865541,0.781275 -2.252569,1.33808 -2.252569,3.240698 0,0.92052 0.100609,1.673672 0.223576,1.673672 0.122967,0 0.450389,-0.254939 0.727604,-0.566533 0.698771,-0.785429 2.439332,-1.539066 3.546737,-1.535684 0.509323,0.0016 1.521354,0.223379 2.248958,0.492945 0.727604,0.269563 2.156354,0.798946 3.175,1.176406 2.01204,0.745562 3.605369,0.867199 5.179938,0.395446 z"
       id="path1444" />
  </g>
</svg>
